<svg width="50" height="50" viewBox="0 0 50 50" fill="none" xmlns="http://www.w3.org/2000/svg">
<g clip-path="url(#clip0)">
<path d="M14.0625 18.75L20.925 28.3563C21.2075 28.7517 21.5769 29.0772 22.0048 29.3076C22.4328 29.538 22.9078 29.6672 23.3935 29.6853C23.8792 29.7034 24.3626 29.61 24.8065 29.4121C25.2504 29.2142 25.643 28.9171 25.9542 28.5438L48.4375 1.56042" stroke="#47D187" stroke-width="4" stroke-linecap="round" stroke-linejoin="round"/>
<path d="M45.3125 21.875V42.1875C45.3125 43.8451 44.654 45.4348 43.4819 46.6069C42.3098 47.779 40.7201 48.4375 39.0625 48.4375H7.8125C6.1549 48.4375 4.56518 47.779 3.39308 46.6069C2.22098 45.4348 1.5625 43.8451 1.5625 42.1875V10.9375C1.5625 9.2799 2.22098 7.69019 3.39308 6.51808C4.56518 5.34598 6.1549 4.6875 7.8125 4.6875H34.375" stroke="#0041C4" stroke-width="2" stroke-linecap="round" stroke-linejoin="round"/>
</g>
<defs>
<clipPath id="clip0">
<rect width="50" height="50" fill="white"/>
</clipPath>
</defs>
</svg>
