<svg 
width="375rpx" height="200rpx" 
viewBox="0 0 375 200" fill="none" 
xmlns="http://www.w3.org/2000/svg">
<path opacity="0.05" d="M437.289 77.8617C346.237 93.8114 272.438 128.479 215.912 181.868C203.56 193.533 197.68 200.187 197.306 202.993C197.047 204.936 198.697 205.382 201.442 204.701C203.712 204.138 207.079 202.787 211.632 200.64C219.297 197.027 229.313 191.709 247.56 181.691C248.589 181.126 265.736 171.692 271.093 168.758C280.677 163.509 288.859 159.076 296.817 154.837C305.446 150.24 313.536 146.019 321.292 142.08C372.488 116.079 408.344 102.817 427.859 105.069C437.943 106.233 443.011 107.967 443.553 109.997C444.025 111.762 440.963 114.457 434.302 117.958C428.588 120.962 421.038 124.249 407.505 129.771C406.666 130.113 394.154 135.196 390.299 136.777C383.383 139.614 377.568 142.054 372.002 144.473C341.302 157.813 320.758 169.526 309.204 181.899C303.328 188.191 301.29 191.949 303.215 193.708C304.841 195.194 309.12 194.538 316.291 192.092C327.272 188.345 341.177 182.055 371.803 167.446L372.489 167.119C416.788 145.984 431.84 139.437 437.87 139.891L437.975 138.503C431.542 138.017 416.91 144.382 371.887 165.862L371.201 166.189C340.638 180.769 326.746 187.053 315.84 190.774C309.271 193.014 305.204 193.637 304.157 192.681C303.176 191.784 304.968 188.477 310.225 182.848C321.607 170.66 342.029 159.016 372.559 145.75C378.116 143.335 383.922 140.899 390.829 138.065C394.682 136.485 407.192 131.403 408.033 131.06C421.609 125.521 429.184 122.222 434.952 119.19C442.269 115.345 445.634 112.382 444.902 109.638C444.134 106.764 438.757 104.924 428.02 103.685C408.114 101.389 372.134 114.696 320.659 140.838C312.895 144.782 304.796 149.007 296.16 153.608C288.197 157.851 280.01 162.286 270.422 167.537C265.063 170.471 247.915 179.906 246.887 180.47C228.667 190.474 218.665 195.785 211.036 199.381C206.561 201.491 203.263 202.814 201.105 203.349C199.173 203.829 198.622 203.68 198.689 203.176C198.998 200.863 204.891 194.194 216.871 182.879C273.294 129.588 347.013 95.0082 438.043 79.1441L438.556 79.0546L441.852 50.702L441.208 50.5852C427.522 48.1019 417.554 47.3535 407.784 48.2391C396.348 49.2756 384.769 52.6039 368.359 59.4279C355.584 64.741 356.832 64.1565 304.347 89.0828C300.394 90.9602 296.361 93.0169 292.248 95.2488C275.537 104.316 257.921 115.997 238.449 130.505C224.498 140.901 181.095 175.694 174.565 180.234C167.804 184.936 164.072 186.452 163.354 185.169C162.384 183.435 164.558 177.27 170.31 166.333C180.742 146.497 215.029 120.372 279.597 79.5046C285.328 75.8767 291.377 72.0789 298.35 67.724C304.135 64.1109 324.852 51.221 329.1 48.5705C340.91 41.2008 349.954 35.5006 358.321 30.1313C379.228 16.7144 394.571 6.18401 406.045 -2.82841C419.354 -13.2816 427.173 -21.5072 429.355 -27.8225C431.845 -35.0259 427.091 -39.6748 415.004 -41.5835C398.836 -44.1367 376.955 -35.6115 349.085 -17.1157C326.121 -1.875 300.113 19.2883 266.194 49.5101C259.736 55.264 252.975 61.3575 245.233 68.3901C241.171 72.0803 237.043 75.8419 231.519 80.886C229.923 82.3428 223.467 88.239 224.727 87.0885C221.988 89.5897 219.968 91.4337 217.991 93.2368C207.169 103.107 199.314 110.218 191.791 116.929C172.6 134.049 157.709 146.601 144.884 156.251C114.259 179.296 96.4415 184.748 90.3714 170.951C87.6633 164.796 87.6728 158.438 90.2306 151.785C93.9493 142.115 102.972 131.922 117.087 120.698C128.344 111.746 141.544 102.982 162.015 90.4188C165.677 88.1715 178.033 80.6455 179.561 79.7106C186.366 75.5491 191.477 72.3723 196.221 69.334C208.164 61.6861 216.855 55.4708 223.309 49.7621C239.031 35.8565 241.063 24.8509 226.865 16.0403C205.455 2.75508 187.227 4.84131 167.508 20.7179C157.019 29.1627 147.054 40.2203 130.064 61.3053C127.855 64.0462 119.926 73.9402 119.779 74.1233C115.532 79.4136 112.201 83.5265 108.868 87.5811C100.28 98.0295 92.5525 106.998 84.6591 115.558C80.8407 119.699 77.0278 123.693 73.1878 127.565C57.2011 143.684 42.306 152.897 29.3503 155.637C18.4175 157.949 9.39072 155.445 3.80969 149.359C-1.2988 143.788 -2.8252 135.814 -0.141705 128.633C2.80516 120.746 10.3219 114.788 21.4855 112.483C44.1887 107.796 66.5284 87.8938 88.5041 57.0784C95.6602 47.0438 102.351 36.4567 109.117 24.8086C112.372 19.2048 120.199 5.16314 121.035 3.7553C127.471 -7.07992 145.781 -21.7934 175.924 -40.3025C183.73 -44.1149 188.963 -47.4151 191.591 -50.209C194.428 -53.2249 194.349 -55.9175 191.252 -57.7903C182.952 -62.8098 150.497 -42.2098 115.083 -10.3486C107.59 -3.6076 101.46 2.57515 95.5434 9.17324C92.3977 12.6813 83.6293 22.9918 82.6221 24.1365C77.8305 29.5824 73.8596 33.4897 69.0191 37.319C63.3067 41.838 56.4666 46.1159 47.5493 50.6499C32.0865 58.5119 14.4617 57.8268 2.50251 51.5809C-1.8358 49.3151 -4.10997 46.7596 -3.4901 45.4542C-2.74975 43.895 1.7304 43.4797 9.35593 44.9525C25.7695 48.1227 40.7951 44.6181 55.0394 35.1362C67.0738 27.1254 78.2933 15.1309 90.2995 -1.57653C95.2335 -8.44251 101.507 -15.5162 109.349 -23.3276C114.668 -28.6255 131.912 -44.629 134.448 -47.2047C137.686 -50.4928 139.515 -52.7789 140.105 -54.442C140.895 -56.6699 139.536 -57.8911 136.483 -57.8911C129.274 -57.8911 121.516 -52.7969 109.041 -40.4975C102.02 -33.5755 67.595 3.39523 60.7299 10.5799C42.4299 29.732 19.4732 34.5385 1.89094 28.0389C-4.3723 25.7235 -8.14315 22.2565 -7.54168 19.9359C-6.8694 17.342 -0.97832 16.0857 9.40578 17.3231C32.9828 20.1327 54.5646 6.49272 79.2538 -20.9384C82.2751 -24.2952 85.2904 -27.7866 88.8683 -32.038C90.3917 -33.8481 96.097 -40.6896 97.4253 -42.2661C103.879 -49.9255 107.771 -54.092 111.091 -56.6428C115.464 -60.0019 118.09 -63.2622 118.506 -65.6829C118.967 -68.3717 116.779 -69.5673 113.296 -68.743C105.194 -66.8257 92.1098 -56.1432 78.0179 -38.1154C56.8145 -10.9899 32.5116 -4.18265 4.90956 -17.596L4.29862 -16.3437C32.5185 -2.63014 57.5249 -9.6344 79.1183 -37.2587C93.0329 -55.0597 105.894 -65.5599 113.618 -67.3878C116.264 -68.0141 117.385 -67.4018 117.13 -65.9181C116.788 -63.9259 114.36 -60.9114 110.24 -57.7465C106.812 -55.1129 102.877 -50.9005 96.3572 -43.1625C95.026 -41.5824 89.3203 -34.7406 87.7997 -32.9338C84.2309 -28.6932 81.2252 -25.2129 78.2156 -21.8691C53.8055 5.25198 32.5596 18.6796 9.57123 15.9402C-1.47625 14.6237 -7.96499 16.0075 -8.89276 19.5871C-9.74345 22.8692 -5.46159 26.8061 1.40621 29.3449C19.5009 36.034 43.0473 31.104 61.7399 11.5411C68.6235 4.33695 103.026 -32.6093 110.022 -39.5067C122.243 -51.5561 129.77 -56.4983 136.483 -56.4983C138.696 -56.4983 139.195 -56.0503 138.789 -54.9068C138.292 -53.505 136.545 -51.3206 133.453 -48.181C130.944 -45.6336 113.707 -29.6363 108.363 -24.3134C100.472 -16.4526 94.1506 -9.3254 89.1655 -2.38825C63.4395 33.4111 39.4893 49.3539 9.62108 43.5851C1.36756 41.991 -3.60903 42.4523 -4.7512 44.8577C-5.83931 47.1493 -3.10099 50.2263 1.85545 52.8149C14.2008 59.2625 32.3007 59.9661 48.1828 51.8909C57.1787 47.317 64.0965 42.9904 69.886 38.4105C74.7999 34.5231 78.828 30.5594 83.6707 25.0555C84.6901 23.897 93.4527 13.5933 96.5834 10.1021C102.468 3.53994 108.563 -2.60757 116.017 -9.31406C150.752 -40.5643 183.096 -61.0939 190.529 -56.5991C192.799 -55.2262 192.847 -53.5794 190.574 -51.1623C188.091 -48.5232 182.975 -45.2968 175.252 -41.521C144.863 -22.8646 126.423 -8.04748 119.834 3.04504C118.986 4.47323 111.155 18.523 107.91 24.11C101.164 35.7235 94.4952 46.2755 87.3672 56.2707C65.5792 86.8228 43.4665 106.523 21.2028 111.119C9.58718 113.517 1.67269 119.791 -1.44929 128.146C-4.31526 135.816 -2.68331 144.341 2.78021 150.299C8.70994 156.766 18.2421 159.409 29.6395 156.999C42.8922 154.197 58.0158 144.843 74.1796 128.545C78.0318 124.66 81.8564 120.654 85.6859 116.501C93.5992 107.92 101.343 98.9318 109.947 88.4645C113.284 84.405 116.618 80.2883 120.868 74.9942C121.016 74.8098 128.944 64.9173 131.151 62.1782C148.08 41.1697 157.999 30.1638 168.384 21.8019C187.662 6.28023 205.249 4.2674 226.128 17.2231C239.339 25.4208 237.506 35.344 222.384 48.7198C215.995 54.3707 207.355 60.5494 195.468 68.1618C190.733 71.194 185.63 74.3661 178.832 78.5231C177.305 79.4568 164.948 86.9836 161.284 89.2323C140.768 101.823 127.531 110.612 116.217 119.609C101.925 130.974 92.7553 141.332 88.9277 151.286C86.2424 158.27 86.2323 165.008 89.0936 171.511C95.7519 186.645 114.39 180.942 145.724 157.363C158.586 147.685 173.503 135.111 192.721 117.968C200.249 111.252 208.107 104.138 218.932 94.265C220.91 92.4616 222.93 90.6174 225.669 88.116C224.409 89.2664 230.865 83.3703 232.461 81.9136C237.984 76.8703 242.111 73.1094 246.172 69.4202C253.911 62.3903 260.669 56.2997 267.123 50.5491C300.997 20.3678 326.961 -0.760315 349.858 -15.9559C377.457 -34.2723 399.064 -42.6906 414.786 -40.2078C426.133 -38.416 430.174 -34.4637 428.036 -28.2766C425.97 -22.2999 418.285 -14.2139 405.182 -3.9229C393.75 5.05611 378.439 15.5649 357.566 28.9598C349.205 34.3253 340.166 40.0227 328.36 47.3896C324.114 50.0394 303.396 62.9294 297.61 66.5433C290.634 70.8996 284.584 74.6989 278.849 78.3284C214.011 119.367 179.675 145.53 169.074 165.686C163.014 177.209 160.805 183.471 162.136 185.848C163.558 188.39 167.693 186.711 175.363 181.377C181.94 176.804 225.368 141.99 239.284 131.621C258.706 117.149 276.27 105.503 292.914 96.4725C297.007 94.2522 301.017 92.2068 304.947 90.3405C357.39 65.4338 356.154 66.0128 368.896 60.7136C385.186 53.9394 396.636 50.648 407.91 49.6261C417.385 48.7673 427.074 49.4698 440.314 51.8395L437.289 77.8617Z" fill="#002251"/>
</svg>