<svg width="38" height="38" viewBox="0 0 38 38" fill="none" xmlns="http://www.w3.org/2000/svg">
<path d="M19 26.0435C21.3478 26.0435 26.8261 22.9131 26.8261 18.2174C29.1739 18.2174 29.1739 13.5218 26.8261 13.5218L26.0435 9.60871C19.7826 9.60871 19.7826 7.26088 19 6.47827C18.2174 7.26088 18.2174 9.60871 11.9565 9.60871L11.1739 13.5218C8.82608 13.5218 8.82608 18.2174 11.1739 18.2174C11.1739 22.9131 16.6522 26.0435 19 26.0435Z" stroke="#C1C7D0" stroke-width="1.6" stroke-miterlimit="10" stroke-linecap="round" stroke-linejoin="round"/>
<path d="M28.3741 14.6972L29.1739 8.82609C29.1739 8.82609 29.9565 1 19 1C8.04348 1 8.82609 8.82609 8.82609 8.82609L9.62748 14.6972" stroke="#C1C7D0" stroke-width="1.6" stroke-miterlimit="10" stroke-linecap="round" stroke-linejoin="round"/>
<path d="M15.0197 24.5002L5.06487 27.2252C2.62 28.1409 1 30.4762 1 33.087V37H37V33.087C37 30.4762 35.3816 28.1409 32.9367 27.2252L23.0132 24.4783" stroke="#C1C7D0" stroke-width="1.6" stroke-miterlimit="10" stroke-linecap="round" stroke-linejoin="round"/>
<path d="M14.3044 15.0901C14.3044 14.2245 15.004 14.3075 15.8696 14.3075C16.7351 14.3075 17.4348 14.2245 17.4348 15.0901" stroke="#C1C7D0" stroke-width="1.6" stroke-miterlimit="10" stroke-linecap="round" stroke-linejoin="round"/>
<path d="M20.5652 15.0901C20.5652 14.2245 21.2649 14.3075 22.1304 14.3075C22.996 14.3075 23.6957 14.2245 23.6957 15.0901" stroke="#C1C7D0" stroke-width="1.6" stroke-miterlimit="10" stroke-linecap="round" stroke-linejoin="round"/>
<path d="M19 29.9565L14.3044 37H23.6957L19 29.9565Z" stroke="#C1C7D0" stroke-width="1.6" stroke-miterlimit="10" stroke-linejoin="round"/>
<path d="M16.6522 25.2609V27.6087C16.6522 28.9047 17.704 29.9565 19 29.9565C20.296 29.9565 21.3478 28.9047 21.3478 27.6087V25.2609" stroke="#C1C7D0" stroke-width="1.6" stroke-miterlimit="10" stroke-linejoin="round"/>
<path d="M27.6087 32.3044H33.087" stroke="#C1C7D0" stroke-width="1.6" stroke-miterlimit="10" stroke-linejoin="round"/>
</svg>
